# Blender 5.0.0
# www.blender.org
mtllib muñeco.mtl
o Cube
v 0.712132 1.422021 -0.426603
v 0.664884 -0.003905 -0.475063
v 0.712132 1.422021 0.005967
v 0.680702 -0.004923 0.169798
v 0.733933 -0.938573 -0.483788
v 0.733933 -0.947781 0.311603
v 0.712002 -2.474350 -0.280573
v 0.712002 -2.474350 0.280572
v 0.251013 -2.485555 -0.448436
v 0.251013 -2.485555 0.448436
v 0.691218 -4.055243 -0.192376
v 0.780491 -4.055243 0.243389
v 0.382706 -4.057543 -0.220749
v 0.318939 -4.057543 0.266661
v 0.801736 0.651951 -0.458477
v 0.801736 0.651952 0.048260
v 0.902258 1.278112 -0.458476
v 0.902258 1.278112 -0.025906
v 1.165816 0.881523 -0.458477
v 1.165816 0.881523 -0.012683
v 1.134331 -1.132443 -0.380346
v 1.134331 -1.140558 -0.089951
v 1.401911 -1.085146 -0.367001
v 1.401911 -1.090201 -0.061307
v 1.247192 -1.523134 -0.332144
v 1.247193 -1.526042 -0.079545
v 1.320532 -1.515771 -0.330735
v 1.320532 -1.518125 -0.075370
v 1.362659 -0.145545 -0.409937
v 1.032043 -0.241967 -0.412248
v 1.362659 -0.146340 0.005247
v 1.032043 -0.247290 -0.066302
v 0.693371 -4.351267 -0.192376
v 0.782645 -4.351267 0.243389
v 0.384860 -4.353567 -0.220749
v 0.321093 -4.353567 0.266661
v 0.347832 -4.208571 0.860901
v 0.702925 -4.206271 0.852509
v 0.350196 -4.353567 0.861207
v 0.705289 -4.351267 0.852814
v 0.361873 -3.914610 0.230818
v 0.729455 -3.912094 0.201190
v 0.407772 -3.914610 -0.188813
v 0.665197 -3.912094 -0.155513
v 0.317139 1.659143 -0.002836
v 0.317139 1.659395 -0.261217
v 0.350502 1.977078 -0.011505
v 0.319888 2.056235 -0.265898
v 0.666590 -0.415324 0.221576
v 0.665874 -0.410879 -0.475664
v 0.384534 2.340138 -0.011071
v 0.276209 1.907482 -0.040382
v 0.384534 2.334379 -0.400689
v 0.318523 2.850515 -0.019357
v 0.316908 2.770597 -0.353222
v 0.291156 2.174218 0.237568
v 0.315329 2.641212 0.257155
v 0.313662 2.349847 0.245063
v 0.256814 1.958283 -0.234975
v -0.712132 1.422021 -0.426603
v -0.664884 -0.003905 -0.475063
v -0.712132 1.422021 0.005967
v -0.680702 -0.004923 0.169798
v 0.000000 1.450335 -0.502365
v 0.000000 -0.004578 -0.724919
v 0.000000 1.234505 0.372983
v 0.000000 -0.030826 0.412294
v -0.733933 -0.938573 -0.483788
v -0.733933 -0.947781 0.311603
v 0.000000 -1.065214 -0.724919
v 0.000000 -1.027721 0.539803
v -0.712002 -2.474350 -0.280573
v -0.712002 -2.474350 0.280572
v -0.251013 -2.485555 -0.448436
v -0.251013 -2.485555 0.448436
v -0.691218 -4.055243 -0.192376
v -0.780491 -4.055243 0.243389
v -0.382706 -4.057543 -0.220749
v -0.318939 -4.057543 0.266661
v -0.801736 0.651951 -0.458477
v 0.000000 0.572014 0.445687
v -0.801736 0.651952 0.048260
v 0.000000 0.463784 -0.724919
v -0.902258 1.278112 -0.458476
v -0.902258 1.278112 -0.025906
v -1.165816 0.881523 -0.458477
v -1.165816 0.881523 -0.012683
v -1.134331 -1.132443 -0.380346
v -1.134331 -1.140558 -0.089951
v -1.401911 -1.085146 -0.367001
v -1.401911 -1.090201 -0.061307
v -1.247192 -1.523134 -0.332144
v -1.247193 -1.526042 -0.079545
v -1.320532 -1.515771 -0.330735
v -1.320532 -1.518125 -0.075370
v -1.362659 -0.145545 -0.409937
v -1.032043 -0.241967 -0.412248
v -1.362659 -0.146340 0.005247
v -1.032043 -0.247290 -0.066302
v -0.693371 -4.351267 -0.192376
v -0.782645 -4.351267 0.243389
v -0.384860 -4.353567 -0.220749
v -0.321093 -4.353567 0.266661
v -0.347832 -4.208571 0.860901
v -0.702925 -4.206271 0.852509
v -0.350196 -4.353567 0.861207
v -0.705289 -4.351267 0.852814
v -0.361873 -3.914610 0.230818
v -0.729455 -3.912094 0.201190
v -0.407772 -3.914610 -0.188813
v -0.665197 -3.912094 -0.155513
v -0.317139 1.659143 -0.002836
v 0.000000 1.662348 0.062327
v -0.317139 1.659395 -0.261217
v 0.000000 1.688695 -0.380385
v -0.350502 1.977078 -0.011505
v 0.000000 1.937490 0.066072
v -0.319888 2.056235 -0.265898
v 0.000000 2.017868 -0.402432
v -0.666590 -0.415324 0.221576
v -0.665874 -0.410879 -0.475664
v 0.000000 -0.448396 -0.724919
v 0.000000 -0.447971 0.471757
v -0.384534 2.340138 -0.011071
v -0.276209 1.907482 -0.040382
v -0.384534 2.334379 -0.400689
v 0.000000 2.382772 -0.568002
v -0.318523 2.850515 -0.019357
v 0.000000 3.008246 -0.023609
v -0.316908 2.770597 -0.353222
v 0.000000 2.925115 -0.482588
v -0.291156 2.174218 0.237568
v 0.000000 2.060084 0.237823
v -0.315329 2.641212 0.257155
v 0.000000 2.778496 0.285603
v -0.313662 2.349847 0.245063
v 0.000000 2.379181 0.310531
v 0.000000 1.923776 0.015248
v 0.000000 1.935476 -0.332864
v -0.256814 1.958283 -0.234975
vn 0.1799 0.6137 -0.7687
vn 0.4345 0.0990 0.8952
vn 0.9919 0.1267 0.0007
vn 0.1506 0.0924 0.9843
vn 0.2028 0.1505 -0.9676
vn 0.3156 -0.0147 0.9488
vn 0.3278 0.0262 -0.9444
vn 0.3085 0.1521 0.9390
vn 0.0599 0.2643 0.9626
vn -0.9852 -0.1716 0.0030
vn 0.9999 -0.0143 -0.0001
vn 0.3342 -0.1257 -0.9341
vn 0.9796 0.0071 -0.2007
vn -0.9665 0.2283 -0.1169
vn 0.9500 0.2523 -0.1841
vn 0.1034 0.2329 -0.9670
vn 0.3350 -0.0269 -0.9418
vn 0.9809 -0.1938 -0.0136
vn 0.3946 0.0264 0.9185
vn 0.8329 0.5535 -0.0000
vn -0.0589 0.0095 -0.9982
vn 0.6035 0.7973 -0.0000
vn 0.0353 -0.0381 -0.9987
vn -0.0944 -0.0081 0.9955
vn 0.9991 0.0416 0.0003
vn -0.1501 -0.0600 0.9868
vn -0.9935 -0.1140 -0.0024
vn 0.1040 -0.9945 -0.0103
vn -0.9601 -0.2796 -0.0057
vn 0.0590 -0.0999 -0.9932
vn 0.9825 -0.1863 -0.0025
vn -0.9686 -0.2487 -0.0016
vn 0.0078 -0.0484 0.9988
vn 0.9821 0.1882 0.0002
vn 0.0239 -0.0439 -0.9987
vn 0.0060 -1.0000 -0.0002
vn 0.0916 0.0007 -0.9958
vn 0.9918 0.0102 0.1274
vn -0.9915 -0.0072 -0.1297
vn 0.0236 0.0025 0.9997
vn 0.0056 -1.0000 0.0002
vn -0.9988 -0.0102 0.0474
vn 0.0040 0.9699 0.2436
vn 0.2698 -0.1179 -0.9557
vn 0.9975 -0.0113 -0.0698
vn -0.9950 -0.0937 -0.0347
vn 0.2323 -0.0899 0.9685
vn 0.1632 -0.7541 0.6361
vn 0.2443 0.5340 0.8095
vn 0.5149 0.8572 0.0003
vn 0.3534 -0.4248 -0.8334
vn 0.3643 -0.5473 -0.7535
vn 0.7450 -0.6140 -0.2607
vn 0.3364 0.1198 0.9341
vn 0.3511 0.0011 -0.9363
vn 0.9998 -0.0168 -0.0124
vn 0.4217 0.1506 -0.8941
vn 0.9841 -0.1652 -0.0656
vn 0.9830 0.0781 0.1660
vn 0.4640 0.8675 -0.1793
vn 0.9899 0.1405 -0.0189
vn 0.9519 -0.1042 0.2880
vn 0.1293 -0.1644 0.9779
vn 0.1523 0.0180 0.9882
vn 0.2540 -0.7525 0.6076
vn 0.3673 0.7433 0.5592
vn 0.9832 0.1815 -0.0216
vn 0.3506 0.1634 -0.9222
vn 0.2019 0.1762 0.9634
vn -0.1799 0.6137 -0.7687
vn -0.4345 0.0990 0.8952
vn -0.9919 0.1267 0.0007
vn -0.1506 0.0924 0.9843
vn -0.2028 0.1505 -0.9676
vn -0.3156 -0.0147 0.9488
vn -0.3278 0.0262 -0.9444
vn -0.3085 0.1521 0.9390
vn -0.0599 0.2643 0.9626
vn 0.9852 -0.1716 0.0030
vn -0.9999 -0.0143 -0.0001
vn -0.3342 -0.1257 -0.9341
vn -0.9796 0.0071 -0.2007
vn 0.9665 0.2283 -0.1169
vn -0.9500 0.2523 -0.1841
vn -0.1034 0.2329 -0.9670
vn -0.3350 -0.0269 -0.9418
vn -0.9809 -0.1938 -0.0136
vn -0.3946 0.0264 0.9185
vn -0.8329 0.5535 -0.0000
vn 0.0589 0.0095 -0.9982
vn -0.6035 0.7973 -0.0000
vn -0.0353 -0.0381 -0.9987
vn 0.0944 -0.0081 0.9955
vn -0.9991 0.0416 0.0003
vn 0.1501 -0.0600 0.9868
vn 0.9935 -0.1140 -0.0024
vn -0.1040 -0.9945 -0.0103
vn 0.9601 -0.2796 -0.0057
vn -0.0590 -0.0999 -0.9932
vn -0.9825 -0.1863 -0.0025
vn 0.9686 -0.2487 -0.0016
vn -0.0078 -0.0484 0.9988
vn -0.9821 0.1882 0.0002
vn -0.0239 -0.0439 -0.9987
vn -0.0060 -1.0000 -0.0002
vn -0.0916 0.0007 -0.9958
vn -0.9918 0.0102 0.1274
vn 0.9915 -0.0072 -0.1297
vn -0.0236 0.0025 0.9997
vn -0.0056 -1.0000 0.0002
vn 0.9988 -0.0102 0.0474
vn -0.0040 0.9699 0.2436
vn -0.2698 -0.1179 -0.9557
vn -0.9975 -0.0113 -0.0698
vn 0.9950 -0.0937 -0.0347
vn -0.2323 -0.0899 0.9685
vn -0.1632 -0.7541 0.6361
vn -0.2443 0.5340 0.8095
vn -0.5149 0.8572 0.0003
vn -0.3534 -0.4248 -0.8334
vn -0.3643 -0.5473 -0.7535
vn -0.7450 -0.6140 -0.2607
vn -0.3364 0.1198 0.9341
vn -0.3511 0.0011 -0.9363
vn -0.9998 -0.0168 -0.0124
vn -0.4217 0.1506 -0.8941
vn -0.9841 -0.1652 -0.0656
vn -0.9830 0.0781 0.1660
vn -0.4640 0.8675 -0.1793
vn -0.9899 0.1405 -0.0189
vn -0.9519 -0.1042 0.2880
vn -0.1293 -0.1644 0.9779
vn -0.1523 0.0180 0.9882
vn -0.2540 -0.7525 0.6076
vn -0.3673 0.7433 0.5592
vn -0.9832 0.1815 -0.0216
vn -0.3506 0.1634 -0.9222
vn -0.2019 0.1762 0.9634
vt 0.625000 0.500000
vt 0.625000 0.250000
vt 0.625000 0.290705
vt 0.455136 0.750000
vt 0.625000 0.750000
vt 0.633818 0.960112
vt 0.455136 1.000000
vt 0.375000 0.500000
vt 0.375000 0.750000
vt 0.455135 0.250000
vt 0.455136 0.500000
vt 0.375000 1.000000
vt 0.375000 0.250000
vt 0.375000 0.250000
vt 0.375000 0.750000
vt 0.000000 0.000000
vt 0.455135 0.500000
vt 0.125000 0.500000
vt 0.125000 0.750000
vt 0.875000 0.537972
vt 0.875000 0.695216
s 0
usemtl Material
f 1/1/1 64/2/1 115/3/1 46/1/1
f 16/4/2 3/5/2 66/6/2 81/7/2
f 50/8/3 49/9/3 6/9/3 5/8/3
f 3/5/4 16/4/4 20/4/4 18/5/4
f 83/10/5 64/2/5 1/1/5 15/11/5
f 6/9/6 71/12/6 10/12/6 8/9/6
f 122/13/7 50/8/7 5/8/7 70/14/7
f 49/9/8 123/12/8 71/12/8 6/9/8
f 42/15/9 41/12/9 14/12/9 12/9/9
f 71/16/10 70/16/10 9/16/10 10/16/10
f 5/8/11 6/9/11 8/9/11 7/8/11
f 70/14/12 5/8/12 7/8/12 9/14/12
f 11/8/13 12/9/13 34/9/13 33/8/13
f 41/16/14 43/16/14 13/16/14 14/16/14
f 44/8/15 42/15/15 12/9/15 11/8/15
f 43/14/16 44/8/16 11/8/16 13/14/16
f 65/14/17 83/10/17 15/11/17 2/8/17
f 2/8/18 15/11/18 16/4/18 4/9/18
f 4/9/19 16/4/19 81/7/19 67/12/19
f 19/11/20 17/1/20 18/5/20 20/4/20
f 15/11/21 1/1/21 17/1/21 19/11/21
f 1/1/22 3/5/22 18/5/22 17/1/22
f 30/11/23 29/17/23 23/11/23 21/11/23
f 24/4/24 22/4/24 26/4/24 28/4/24
f 29/17/25 31/4/25 24/4/25 23/11/25
f 31/4/26 32/4/26 22/4/26 24/4/26
f 32/4/27 30/11/27 21/11/27 22/4/27
f 26/4/28 25/11/28 27/11/28 28/4/28
f 22/4/29 21/11/29 25/11/29 26/4/29
f 21/11/30 23/11/30 27/11/30 25/11/30
f 23/11/31 24/4/31 28/4/31 27/11/31
f 16/4/32 15/11/32 30/11/32 32/4/32
f 20/4/33 16/4/33 32/4/33 31/4/33
f 19/11/34 20/4/34 31/4/34 29/17/34
f 15/11/35 19/11/35 29/17/35 30/11/35
f 35/18/36 33/8/36 34/9/36 36/19/36
f 13/14/37 11/8/37 33/8/37 35/14/37
f 34/9/38 12/9/38 38/9/38 40/9/38
f 14/16/39 13/16/39 35/16/39 36/16/39
f 38/9/40 37/12/40 39/12/40 40/9/40
f 36/19/41 34/9/41 40/9/41 39/19/41
f 14/16/42 36/16/42 39/16/42 37/16/42
f 12/9/43 14/12/43 37/12/43 38/9/43
f 9/14/44 7/8/44 44/8/44 43/14/44
f 7/8/45 8/9/45 42/15/45 44/8/45
f 10/16/46 9/16/46 43/16/46 41/16/46
f 8/9/47 10/12/47 41/12/47 42/15/47
f 138/6/48 52/5/48 47/5/48 117/6/48
f 66/6/49 3/5/49 45/5/49 113/6/49
f 3/5/50 1/1/50 46/1/50 45/5/50
f 48/1/51 119/3/51 127/3/51 53/1/51
f 59/1/52 139/3/52 119/3/52 48/1/52
f 52/5/53 59/1/53 48/1/53 47/5/53
f 4/9/54 67/12/54 123/12/54 49/9/54
f 65/14/55 2/8/55 50/8/55 122/13/55
f 2/8/56 4/9/56 49/9/56 50/8/56
f 53/1/57 127/3/57 131/3/57 55/1/57
f 47/5/58 48/1/58 53/1/58 51/5/58
f 51/5/59 54/5/59 57/5/59 58/5/59
f 55/1/60 131/20/60 129/21/60 54/5/60
f 51/5/61 53/1/61 55/1/61 54/5/61
f 47/5/62 51/5/62 58/5/62 56/5/62
f 133/6/63 56/5/63 58/5/63 137/6/63
f 137/6/64 58/5/64 57/5/64 135/6/64
f 117/6/65 47/5/65 56/5/65 133/6/65
f 54/5/66 129/21/66 135/21/66 57/5/66
f 45/5/67 46/1/67 59/1/67 52/5/67
f 46/1/68 115/3/68 139/3/68 59/1/68
f 113/6/69 45/5/69 52/5/69 138/6/69
f 60/1/70 114/1/70 115/3/70 64/2/70
f 82/4/71 81/7/71 66/6/71 62/5/71
f 121/8/72 68/8/72 69/9/72 120/9/72
f 62/5/73 85/5/73 87/4/73 82/4/73
f 83/10/74 80/11/74 60/1/74 64/2/74
f 69/9/75 73/9/75 75/12/75 71/12/75
f 122/13/76 70/14/76 68/8/76 121/8/76
f 120/9/77 69/9/77 71/12/77 123/12/77
f 109/15/78 77/9/78 79/12/78 108/12/78
f 71/16/79 75/16/79 74/16/79 70/16/79
f 68/8/80 72/8/80 73/9/80 69/9/80
f 70/14/81 74/14/81 72/8/81 68/8/81
f 76/8/82 100/8/82 101/9/82 77/9/82
f 108/16/83 79/16/83 78/16/83 110/16/83
f 111/8/84 76/8/84 77/9/84 109/15/84
f 110/14/85 78/14/85 76/8/85 111/8/85
f 65/14/86 61/8/86 80/11/86 83/10/86
f 61/8/87 63/9/87 82/4/87 80/11/87
f 63/9/88 67/12/88 81/7/88 82/4/88
f 86/11/89 87/4/89 85/5/89 84/1/89
f 80/11/90 86/11/90 84/1/90 60/1/90
f 60/1/91 84/1/91 85/5/91 62/5/91
f 97/11/92 88/11/92 90/11/92 96/17/92
f 91/4/93 95/4/93 93/4/93 89/4/93
f 96/17/94 90/11/94 91/4/94 98/4/94
f 98/4/95 91/4/95 89/4/95 99/4/95
f 99/4/96 89/4/96 88/11/96 97/11/96
f 93/4/97 95/4/97 94/11/97 92/11/97
f 89/4/98 93/4/98 92/11/98 88/11/98
f 88/11/99 92/11/99 94/11/99 90/11/99
f 90/11/100 94/11/100 95/4/100 91/4/100
f 82/4/101 99/4/101 97/11/101 80/11/101
f 87/4/102 98/4/102 99/4/102 82/4/102
f 86/11/103 96/17/103 98/4/103 87/4/103
f 80/11/104 97/11/104 96/17/104 86/11/104
f 102/18/105 103/19/105 101/9/105 100/8/105
f 78/14/106 102/14/106 100/8/106 76/8/106
f 101/9/107 107/9/107 105/9/107 77/9/107
f 79/16/108 103/16/108 102/16/108 78/16/108
f 105/9/109 107/9/109 106/12/109 104/12/109
f 103/19/110 106/19/110 107/9/110 101/9/110
f 79/16/111 104/16/111 106/16/111 103/16/111
f 77/9/112 105/9/112 104/12/112 79/12/112
f 74/14/113 110/14/113 111/8/113 72/8/113
f 72/8/114 111/8/114 109/15/114 73/9/114
f 75/16/115 108/16/115 110/16/115 74/16/115
f 73/9/116 109/15/116 108/12/116 75/12/116
f 138/6/117 117/6/117 116/5/117 125/5/117
f 66/6/118 113/6/118 112/5/118 62/5/118
f 62/5/119 112/5/119 114/1/119 60/1/119
f 118/1/120 126/1/120 127/3/120 119/3/120
f 140/1/121 118/1/121 119/3/121 139/3/121
f 125/5/122 116/5/122 118/1/122 140/1/122
f 63/9/123 120/9/123 123/12/123 67/12/123
f 65/14/124 122/13/124 121/8/124 61/8/124
f 61/8/125 121/8/125 120/9/125 63/9/125
f 126/1/126 130/1/126 131/3/126 127/3/126
f 116/5/127 124/5/127 126/1/127 118/1/127
f 124/5/128 136/5/128 134/5/128 128/5/128
f 130/1/129 128/5/129 129/21/129 131/20/129
f 124/5/130 128/5/130 130/1/130 126/1/130
f 116/5/131 132/5/131 136/5/131 124/5/131
f 133/6/132 137/6/132 136/5/132 132/5/132
f 137/6/133 135/6/133 134/5/133 136/5/133
f 117/6/134 133/6/134 132/5/134 116/5/134
f 128/5/135 134/5/135 135/21/135 129/21/135
f 112/5/136 125/5/136 140/1/136 114/1/136
f 114/1/137 140/1/137 139/3/137 115/3/137
f 113/6/138 138/6/138 125/5/138 112/5/138
